<svg width="51" height="51" viewBox="0 0 51 51" fill="none" xmlns="http://www.w3.org/2000/svg">
<path d="M6.34827 29.6252H12.6965C13.819 29.6252 14.8954 30.0711 15.6891 30.8648C16.4828 31.6585 16.9287 32.735 16.9287 33.8574V40.2057C16.9287 41.3281 16.4828 42.4046 15.6891 43.1983C14.8954 43.992 13.819 44.4378 12.6965 44.4378H10.5804C9.458 44.4378 8.38153 43.992 7.58784 43.1983C6.79416 42.4046 6.34827 41.3281 6.34827 40.2057V25.3931C6.34827 20.3421 8.35477 15.4979 11.9264 11.9264C15.4979 8.35477 20.3421 6.34827 25.3931 6.34827C30.444 6.34827 35.2882 8.35477 38.8598 11.9264C42.4313 15.4979 44.4378 20.3421 44.4378 25.3931V40.2057C44.4378 41.3281 43.992 42.4046 43.1983 43.1983C42.4046 43.992 41.3281 44.4378 40.2057 44.4378H38.0896C36.9671 44.4378 35.8907 43.992 35.097 43.1983C34.3033 42.4046 33.8574 41.3281 33.8574 40.2057V33.8574C33.8574 32.735 34.3033 31.6585 35.097 30.8648C35.8907 30.0711 36.9671 29.6252 38.0896 29.6252H44.4378" stroke="#1C009A" stroke-width="2" stroke-linecap="round" stroke-linejoin="round"/>
</svg>
