<svg width="50" height="52" viewBox="0 0 50 52" fill="none" xmlns="http://www.w3.org/2000/svg">
<path d="M18.75 6.44806H8.33333C7.18274 6.44806 6.25 7.41036 6.25 8.59741V23.6429C6.25 24.8299 7.18274 25.7922 8.33333 25.7922H18.75C19.9006 25.7922 20.8333 24.8299 20.8333 23.6429V8.59741C20.8333 7.41036 19.9006 6.44806 18.75 6.44806Z" stroke="#1C009A" stroke-width="2" stroke-linecap="round" stroke-linejoin="round"/>
<path d="M41.6667 6.44806H31.25C30.0994 6.44806 29.1667 7.41036 29.1667 8.59741V15.0455C29.1667 16.2325 30.0994 17.1948 31.25 17.1948H41.6667C42.8173 17.1948 43.75 16.2325 43.75 15.0455V8.59741C43.75 7.41036 42.8173 6.44806 41.6667 6.44806Z" stroke="#1C009A" stroke-width="2" stroke-linecap="round" stroke-linejoin="round"/>
<path d="M41.6667 25.7923H31.25C30.0994 25.7923 29.1667 26.7546 29.1667 27.9416V42.9871C29.1667 44.1742 30.0994 45.1365 31.25 45.1365H41.6667C42.8173 45.1365 43.75 44.1742 43.75 42.9871V27.9416C43.75 26.7546 42.8173 25.7923 41.6667 25.7923Z" stroke="#1C009A" stroke-width="2" stroke-linecap="round" stroke-linejoin="round"/>
<path d="M18.75 34.3897H8.33333C7.18274 34.3897 6.25 35.352 6.25 36.5391V42.9871C6.25 44.1742 7.18274 45.1365 8.33333 45.1365H18.75C19.9006 45.1365 20.8333 44.1742 20.8333 42.9871V36.5391C20.8333 35.352 19.9006 34.3897 18.75 34.3897Z" stroke="#1C009A" stroke-width="2" stroke-linecap="round" stroke-linejoin="round"/>
</svg>
