<svg width="50" height="52" viewBox="0 0 50 52" fill="none" xmlns="http://www.w3.org/2000/svg">
<path d="M41.6667 27.9416C41.6667 38.6884 34.375 44.0618 25.7083 47.1783C25.2545 47.337 24.7615 47.3294 24.3125 47.1568C15.625 44.0618 8.33334 38.6884 8.33334 27.9416V12.8961C8.33334 12.3261 8.55284 11.7794 8.94354 11.3763C9.33424 10.9732 9.86414 10.7468 10.4167 10.7468C14.5833 10.7468 19.7917 8.16753 23.4167 4.90052C23.858 4.51148 24.4195 4.29773 25 4.29773C25.5805 4.29773 26.142 4.51148 26.5833 4.90052C30.2292 8.18903 35.4167 10.7468 39.5833 10.7468C40.1359 10.7468 40.6658 10.9732 41.0565 11.3763C41.4472 11.7794 41.6667 12.3261 41.6667 12.8961V27.9416Z" stroke="#1C009A" stroke-width="2" stroke-linecap="round" stroke-linejoin="round"/>
<path d="M18.75 25.7922L22.9167 30.091L31.25 21.4935" stroke="#1C009A" stroke-width="2" stroke-linecap="round" stroke-linejoin="round"/>
</svg>
