<svg width="50" height="50" viewBox="0 0 50 50" fill="none" xmlns="http://www.w3.org/2000/svg">
<path d="M33.3333 43.331V39.2043C33.3333 37.0153 32.4554 34.916 30.8926 33.3681C29.3297 31.8203 27.2101 30.9507 25 30.9507H12.5C10.2899 30.9507 8.17024 31.8203 6.60743 33.3681C5.04463 34.916 4.16666 37.0153 4.16666 39.2043V43.331" stroke="#1C009A" stroke-width="2" stroke-linecap="round" stroke-linejoin="round"/>
<path d="M33.3333 6.45425C35.1203 6.91309 36.7029 7.94663 37.8326 9.39264C38.9624 10.8387 39.5754 12.6153 39.5754 14.4437C39.5754 16.2721 38.9624 18.0487 37.8326 19.4947C36.7029 20.9407 35.1203 21.9743 33.3333 22.4331" stroke="#1C009A" stroke-width="2" stroke-linecap="round" stroke-linejoin="round"/>
<path d="M45.8333 43.331V39.2043C45.832 37.3756 45.2174 35.5991 44.0862 34.1538C42.955 32.7085 41.3711 31.6762 39.5833 31.219" stroke="#1C009A" stroke-width="2" stroke-linecap="round" stroke-linejoin="round"/>
<path d="M18.75 22.6972C23.3524 22.6972 27.0833 19.002 27.0833 14.4437C27.0833 9.88539 23.3524 6.19016 18.75 6.19016C14.1476 6.19016 10.4167 9.88539 10.4167 14.4437C10.4167 19.002 14.1476 22.6972 18.75 22.6972Z" stroke="#1C009A" stroke-width="2" stroke-linecap="round" stroke-linejoin="round"/>
</svg>
