<svg width="39" height="41" viewBox="0 0 39 41" fill="none" xmlns="http://www.w3.org/2000/svg">
<path d="M0.75 22.5122C0.75 21.1775 1.8 20.0942 3.09375 20.0942H7.78125C9.075 20.0942 10.125 21.1775 10.125 22.5122V37.0204C10.125 38.3552 9.075 39.4384 7.78125 39.4384H3.09375C2.47215 39.4384 1.87601 39.1837 1.43647 38.7302C0.99693 38.2768 0.75 37.6617 0.75 37.0204V22.5122ZM14.8125 12.8401C14.8125 11.5054 15.8625 10.4221 17.1562 10.4221H21.8437C23.1375 10.4221 24.1875 11.5054 24.1875 12.8401V37.0204C24.1875 38.3552 23.1375 39.4384 21.8437 39.4384H17.1562C16.5346 39.4384 15.9385 39.1837 15.499 38.7302C15.0594 38.2768 14.8125 37.6617 14.8125 37.0204V12.8401ZM28.875 3.16803C28.875 1.83328 29.925 0.75 31.2187 0.75H35.9062C37.2 0.75 38.25 1.83328 38.25 3.16803V37.0204C38.25 38.3552 37.2 39.4384 35.9062 39.4384H31.2187C30.5971 39.4384 30.001 39.1837 29.5615 38.7302C29.1219 38.2768 28.875 37.6617 28.875 37.0204V3.16803Z" stroke="#1C009A" stroke-width="1.5" stroke-linecap="round" stroke-linejoin="round"/>
</svg>
